<svg width="30" height="28" viewBox="0 0 30 28" fill="none" xmlns="http://www.w3.org/2000/svg">
<path d="M14.6023 7.68711L4.99968 16.5846V26.1875C4.99968 26.4361 5.08748 26.6746 5.24376 26.8504C5.40004 27.0262 5.612 27.125 5.83301 27.125L11.6695 27.108C11.8898 27.1068 12.1007 27.0074 12.256 26.8318C12.4114 26.6561 12.4986 26.4183 12.4986 26.1705V20.5625C12.4986 20.3139 12.5864 20.0754 12.7427 19.8996C12.899 19.7238 13.111 19.625 13.332 19.625H16.6653C16.8863 19.625 17.0983 19.7238 17.2546 19.8996C17.4108 20.0754 17.4986 20.3139 17.4986 20.5625V26.1664C17.4983 26.2898 17.5196 26.412 17.5613 26.5261C17.603 26.6401 17.6644 26.7438 17.7418 26.8312C17.8192 26.9186 17.9112 26.9879 18.0125 27.0352C18.1137 27.0825 18.2223 27.1068 18.332 27.1068L24.1663 27.125C24.3874 27.125 24.5993 27.0262 24.7556 26.8504C24.9119 26.6746 24.9997 26.4361 24.9997 26.1875V16.5781L15.3992 7.68711C15.2863 7.58476 15.1457 7.52895 15.0007 7.52895C14.8557 7.52895 14.7151 7.58476 14.6023 7.68711ZM29.7705 13.7346L25.4163 9.69687V1.58105C25.4163 1.39457 25.3505 1.21573 25.2333 1.08387C25.1161 0.952009 24.9571 0.87793 24.7913 0.87793H21.8747C21.7089 0.87793 21.5499 0.952009 21.4327 1.08387C21.3155 1.21573 21.2497 1.39457 21.2497 1.58105V5.83555L16.5867 1.51953C16.1392 1.10526 15.5776 0.878758 14.9981 0.878758C14.4186 0.878758 13.8571 1.10526 13.4096 1.51953L0.225724 13.7346C0.162436 13.7934 0.110075 13.8657 0.0716336 13.9473C0.0331919 14.029 0.00942259 14.1183 0.00168374 14.2103C-0.00605512 14.3022 0.00238817 14.395 0.0265312 14.4833C0.0506741 14.5716 0.0900437 14.6536 0.14239 14.7248L1.47051 16.5412C1.52272 16.6126 1.58693 16.6717 1.65947 16.7152C1.73201 16.7587 1.81146 16.7856 1.89327 16.7945C1.97508 16.8033 2.05764 16.794 2.13622 16.7669C2.21481 16.7398 2.28788 16.6956 2.35124 16.6367L14.6023 5.28476C14.7151 5.18242 14.8557 5.1266 15.0007 5.1266C15.1457 5.1266 15.2863 5.18242 15.3992 5.28476L27.6507 16.6367C27.714 16.6956 27.7869 16.7399 27.8654 16.7671C27.9439 16.7942 28.0263 16.8037 28.1081 16.795C28.1898 16.7863 28.2692 16.7596 28.3418 16.7163C28.4143 16.6731 28.4786 16.6142 28.5309 16.543L29.859 14.7266C29.9113 14.655 29.9505 14.5725 29.9744 14.4838C29.9983 14.3951 30.0063 14.302 29.9981 14.2099C29.9898 14.1177 29.9655 14.0282 29.9265 13.9467C29.8874 13.8651 29.8344 13.793 29.7705 13.7346Z" fill="#4B3B40"/>
</svg>
