<svg width="210" height="210" viewBox="0 0 210 210" fill="none" xmlns="http://www.w3.org/2000/svg">
<path fill-rule="evenodd" clip-rule="evenodd" d="M210 0H0V210H210V0ZM94.5578 194.149H115.029V163.598C115.029 158.004 118.642 154.131 123.459 154.131C128.275 154.131 131.341 157.896 131.341 163.168V194.149H151.922V159.51C151.922 146.601 143.711 137.242 131.997 137.242C125.32 137.242 120.503 140.254 116.124 146.601H115.029V113.898H94.5578V194.149ZM49.9254 195.763C71.82 195.763 86.1609 185.866 86.1609 170.59C86.1609 151.98 68.0979 149.183 54.7422 147.246L54.132 147.16C45.3107 145.91 37.8834 144.857 37.8834 139.178C37.8834 134.875 42.2623 131.863 49.597 131.863C57.479 131.863 62.6242 135.736 62.6242 142.513H83.5335C83.5335 126.592 69.6305 115.62 48.8307 115.62C28.1403 115.62 14.7846 125.516 14.7846 140.792C14.7846 159.575 33.1201 161.987 46.4986 163.747L46.5013 163.748L46.5062 163.748C47.2235 163.843 47.9265 163.935 48.6117 164.028C56.6032 165.104 63.0621 166.395 63.0621 171.989C63.0621 176.722 58.2453 179.411 50.8012 179.411C41.3865 179.411 36.0223 175.216 35.9129 168.761H14.2373C14.2373 184.683 28.4687 195.763 49.9254 195.763ZM181.525 184.467C181.525 190.814 176.709 195.332 170.031 195.332C163.353 195.332 158.536 190.814 158.536 184.467C158.536 178.12 163.353 173.602 170.031 173.602C176.709 173.602 181.525 178.12 181.525 184.467Z" fill="url(#paint0_linear)"/>
<defs>
<linearGradient id="paint0_linear" x1="56.3044" y1="56.3044" x2="210" y2="210" gradientUnits="userSpaceOnUse">
<stop stop-color="#E6B8AF"/>
<stop offset="1" stop-color="white"/>
</linearGradient>
</defs>
</svg>
