<svg width="45" height="45" viewBox="0 0 45 45" fill="none" xmlns="http://www.w3.org/2000/svg">
<rect width="45" height="45" fill="url(#paint0_linear)"/>
<path d="M10.6984 41.9491C15.3901 41.9491 18.4631 39.8284 18.4631 36.555C18.4631 32.5671 14.5925 31.9677 11.7305 31.5528C9.78348 31.2762 8.11793 31.0687 8.11793 29.8239C8.11793 28.9019 9.05627 28.2564 10.628 28.2564C12.317 28.2564 13.4195 29.0863 13.4195 30.5385H17.9001C17.9001 27.1269 14.9209 24.7756 10.4638 24.7756C6.03013 24.7756 3.1682 26.8964 3.1682 30.1697C3.1682 34.4112 7.53147 34.757 10.4169 35.1489C12.1293 35.3794 13.5134 35.656 13.5134 36.8547C13.5134 37.869 12.4812 38.4453 10.886 38.4453C8.8686 38.4453 7.71914 37.5463 7.69568 36.1632H3.0509C3.0509 39.5748 6.1005 41.9491 10.6984 41.9491Z" fill="white"/>
<path d="M20.2624 41.6034H24.6492V35.0567C24.6492 33.858 25.4233 33.0281 26.4555 33.0281C27.4877 33.0281 28.1445 33.8349 28.1445 34.9645V41.6034H32.5547V34.1807C32.5547 31.4145 30.7953 29.409 28.2852 29.409C26.8543 29.409 25.8221 30.0544 24.8838 31.4145H24.6492V24.4068H20.2624V41.6034Z" fill="white"/>
<path d="M36.4352 41.8569C37.8662 41.8569 38.8984 40.8888 38.8984 39.5287C38.8984 38.1687 37.8662 37.2005 36.4352 37.2005C35.0043 37.2005 33.9721 38.1687 33.9721 39.5287C33.9721 40.8888 35.0043 41.8569 36.4352 41.8569Z" fill="white"/>
<defs>
<linearGradient id="paint0_linear" x1="12.0652" y1="12.0652" x2="45" y2="45" gradientUnits="userSpaceOnUse">
<stop stop-color="#4B3B40"/>
<stop offset="1" stop-color="#E6B8AF"/>
</linearGradient>
</defs>
</svg>
