<svg width="30" height="30" viewBox="0 0 30 30" fill="none" xmlns="http://www.w3.org/2000/svg">
<g clip-path="url(#clip0)">
<path d="M20.7588 17.802C24.36 12.7168 23.1556 5.67534 18.0704 2.07503C12.9853 -1.52529 5.94378 -0.32174 2.34346 4.7643C-1.25685 9.84947 -0.0533076 16.8901 5.03273 20.4904C8.6623 23.0601 13.461 23.258 17.2893 20.9971L25.6074 29.2654C26.5056 30.2108 27.9999 30.2487 28.9454 29.3505C29.8908 28.4533 29.9287 26.9589 29.0314 26.0135C29.003 25.9834 28.9755 25.9558 28.9454 25.9274L20.7588 17.802ZM11.5443 18.5728C7.52585 18.5737 4.26793 15.3183 4.26535 11.2999C4.26449 7.28151 7.51983 4.02359 11.5391 4.02187C15.5524 4.02015 18.8086 7.27032 18.8163 11.2836C18.8232 15.3029 15.5696 18.5659 11.5494 18.5728C11.5477 18.5728 11.5468 18.5728 11.5443 18.5728Z" fill="#4B3B40"/>
</g>
<defs>
<clipPath id="clip0">
<rect width="30" height="30" fill="white"/>
</clipPath>
</defs>
</svg>
