<svg width="18" height="5" viewBox="0 0 18 5" fill="none" xmlns="http://www.w3.org/2000/svg">
<path d="M2.63053 4.198C3.72853 4.198 4.52053 3.442 4.52053 2.38C4.52053 1.318 3.72853 0.562 2.63053 0.562C1.53253 0.562 0.740531 1.318 0.740531 2.38C0.740531 3.442 1.53253 4.198 2.63053 4.198ZM9.00084 4.198C10.0988 4.198 10.8908 3.442 10.8908 2.38C10.8908 1.318 10.0988 0.562 9.00084 0.562C7.90284 0.562 7.11084 1.318 7.11084 2.38C7.11084 3.442 7.90284 4.198 9.00084 4.198ZM15.3712 4.198C16.4692 4.198 17.2612 3.442 17.2612 2.38C17.2612 1.318 16.4692 0.562 15.3712 0.562C14.2732 0.562 13.4812 1.318 13.4812 2.38C13.4812 3.442 14.2732 4.198 15.3712 4.198Z" fill="#434343"/>
</svg>
